<svg xmlns="http://www.w3.org/2000/svg" xmlns:xlink="http://www.w3.org/1999/xlink" version="1.1" x="0px" y="0px" viewBox="0 0 41 63.8125" enable-background="new 0 0 41 51.05" xml:space="preserve"><g><path fill="#000000" d="M40,20.05h-5V14.5C35,6.5,28.5,0,20.5,0S6,6.5,6,14.5v5.55H1c-0.55,0-1,0.45-1,1v22c0,4.41,3.59,8,8,8h25   c4.41,0,8-3.59,8-8v-22C41,20.5,40.55,20.05,40,20.05z M8,14.5C8,7.61,13.61,2,20.5,2S33,7.61,33,14.5V20H8V14.5z M39,22.05v20H2   v-20H39z M8,49.05c-0.34,0-0.68-0.04-1.01-0.09c-0.04-0.01-0.08-0.01-0.12-0.02c-0.31-0.06-0.61-0.15-0.9-0.25   c-0.05-0.02-0.1-0.04-0.15-0.05c-0.28-0.11-0.56-0.24-0.82-0.39c-0.04-0.03-0.09-0.05-0.13-0.08c-0.26-0.16-0.51-0.34-0.75-0.53   c-0.03-0.02-0.05-0.05-0.07-0.07c-0.24-0.21-0.46-0.43-0.67-0.68c0,0-0.01-0.01-0.01-0.01c-0.2-0.24-0.38-0.51-0.54-0.78   c-0.02-0.03-0.04-0.07-0.06-0.1c-0.15-0.27-0.28-0.54-0.39-0.83c-0.02-0.05-0.04-0.1-0.05-0.15c-0.1-0.29-0.18-0.59-0.23-0.9   c0-0.02-0.01-0.04-0.01-0.06h36.82c0,0.02-0.01,0.04-0.01,0.06c-0.06,0.31-0.13,0.61-0.23,0.9c-0.02,0.05-0.04,0.1-0.05,0.15   c-0.11,0.29-0.24,0.57-0.39,0.83c-0.02,0.04-0.04,0.07-0.06,0.1c-0.16,0.27-0.34,0.54-0.54,0.78c0,0-0.01,0.01-0.01,0.01   c-0.2,0.24-0.43,0.47-0.67,0.68c-0.03,0.02-0.05,0.05-0.07,0.07c-0.23,0.2-0.48,0.37-0.75,0.53c-0.04,0.03-0.09,0.05-0.13,0.08   c-0.26,0.15-0.53,0.28-0.82,0.39c-0.05,0.02-0.1,0.04-0.15,0.05c-0.29,0.1-0.59,0.19-0.9,0.25c-0.04,0.01-0.08,0.01-0.12,0.02   c-0.33,0.06-0.66,0.09-1.01,0.09H8z"/><path fill="#000000" d="M9,39.05h5c0.55,0,1-0.45,1-1v-12c0-0.55-0.45-1-1-1H9c-0.55,0-1,0.45-1,1v12C8,38.6,8.45,39.05,9,39.05z    M13,33.05h-3v-2h3V33.05z M10,37.05v-2h3v2H10z M13,27.05v2h-3v-2H13z"/><path fill="#000000" d="M18,39.05h5c0.55,0,1-0.45,1-1v-12c0-0.55-0.45-1-1-1h-5c-0.55,0-1,0.45-1,1v12   C17,38.6,17.45,39.05,18,39.05z M22,33.05h-3v-2h3V33.05z M19,37.05v-2h3v2H19z M22,27.05v2h-3v-2H22z"/><path fill="#000000" d="M27,39.05h5c0.55,0,1-0.45,1-1v-12c0-0.55-0.45-1-1-1h-5c-0.55,0-1,0.45-1,1v12   C26,38.6,26.45,39.05,27,39.05z M31,33.05h-3v-2h3V33.05z M28,37.05v-2h3v2H28z M31,27.05v2h-3v-2H31z"/></g><text x="0" y="66.05" fill="#000000" font-size="5px" font-weight="bold" font-family="'Helvetica Neue', Helvetica, Arial-Unicode, Arial, Sans-serif">Created by Oliviu Stoian</text><text x="0" y="71.05" fill="#000000" font-size="5px" font-weight="bold" font-family="'Helvetica Neue', Helvetica, Arial-Unicode, Arial, Sans-serif">from the Noun Project</text></svg>